# Crevice terrain for legged_gym
# Width: 0.7m, Height: 2.0m, Length: 10.0m

# Vertices
# Wall 1 (Right side)
v 0.35 -5.0 0.0
v 0.35 5.0 0.0
v 0.35 -5.0 2.0
v 0.35 5.0 2.0
v 0.45 -5.0 0.0
v 0.45 5.0 0.0
v 0.45 -5.0 2.0
v 0.45 5.0 2.0
# Wall 2 (Left side)
v -0.35 -5.0 0.0
v -0.35 5.0 0.0
v -0.35 -5.0 2.0
v -0.35 5.0 2.0
v -0.45 -5.0 0.0
v -0.45 5.0 0.0
v -0.45 -5.0 2.0
v -0.45 5.0 2.0

# Faces
# Wall 1
f 1 2 4 3
f 8 7 5 6
f 1 5 7 3
f 2 4 8 6
f 4 8 7 3
f 1 2 6 5
# Wall 2
f 12 11 9 10
f 13 14 16 15
f 9 11 15 13
f 10 12 16 14
f 12 16 15 11
f 10 14 13 9