# Crevice terrain for legged_gym
# Width: 0.8m, Height: 2.0m, Length: 10.0m

# Vertices
# Wall 1 (Right side)
v 0.4 -5.0 0.0
v 0.4 5.0 0.0
v 0.4 -5.0 2.0
v 0.4 5.0 2.0
v 0.5 -5.0 0.0
v 0.5 5.0 0.0
v 0.5 -5.0 2.0
v 0.5 5.0 2.0
# Wall 2 (Left side)
v -0.4 -5.0 0.0
v -0.4 5.0 0.0
v -0.4 -5.0 2.0
v -0.4 5.0 2.0
v -0.5 -5.0 0.0
v -0.5 5.0 0.0
v -0.5 -5.0 2.0
v -0.5 5.0 2.0

# Faces
# Wall 1 (Right side)
# Inner surface
f 1 2 4 3
# Outer surface  
f 5 6 8 7
# Top surface
f 3 4 8 7
# Bottom surface
f 1 2 6 5
# Front surface
f 2 4 8 6
# Back surface
f 1 3 7 5

# Wall 2 (Left side)
# Inner surface
f 9 10 12 11
# Outer surface
f 13 14 16 15
# Top surface
f 11 12 16 15
# Bottom surface
f 9 10 14 13
# Front surface
f 10 12 16 14
# Back surface
f 9 11 15 13
